# xmcd
#
# Track frame offsets:
#	150
#	29157
#	84720
#	137190
#	167231
#	215659
#	268559
#
# Disc length: 4220 seconds
# Revision: 0
# Processed by: cddbd v1.5.2PL0 Copyright (c) Steve Scherf et al.
# Submitted via: dBpowerAMP V12.0
#
DISCID=6b107a07
DTITLE=Oxygen - Men Nou Papa Live 2
DYEAR=2011
DGENRE=World
TTITLE0=Detay
TTITLE1=Miyan Miyan
TTITLE2=Pour la Premiere Fois 
TTITLE3=Ave`l Mwen Fel 
TTITLE4=Pa Leve Men Sou Li
TTITLE5=Ti Doudou 
TTITLE6=Foure Menw 
EXTD=
EXTT0=
EXTT1=
EXTT2=
EXTT3=
EXTT4=
EXTT5=
EXTT6=
PLAYORDER=
